Patient4_TMGait_0pt2_01_right_12_GRF.mot
version=1
nRows=65
nColumns=19
inDegrees=no
endheader
time	F1x	F1y	F1z	M1x	M1y	M1z	F2x	F2y	F2z	M2x	M2y	M2z	EC1x	EC1y	EC1z	EC2x	EC2y	EC2z
25.81	-9.1826	542.9041	21.4614	-197.1569	-27.9833	588.0736	20.1339	214.4381	-18.4814	81.1546	11.019	193.5158	-0.0592	0.0182	-0.0073	-0.0462	0.0165	0.9585
25.8346	-10.088	564.8805	24.0369	-204.7173	-30.5974	609.843	18.5974	204.1444	-16.9875	77.2588	9.7864	183.9644	-0.0592	0.0182	-0.0073	-0.0462	0.0165	0.9585
25.8593	-11.0845	593.3979	27.3366	-214.6443	-33.9116	638.2115	17.0532	191.262	-15.4943	72.3615	8.613	172.136	-0.0592	0.0182	-0.0073	-0.0462	0.0165	0.9585
25.8839	-11.9918	628.0196	31.3296	-226.8116	-37.8265	672.6247	15.3967	175.8332	-14.0472	66.4824	7.6019	158.1011	-0.0592	0.0182	-0.0073	-0.0462	0.0165	0.9585
25.9086	-12.5772	667.4687	35.9118	-240.7812	-42.1453	711.6071	13.4475	157.9407	-12.6342	59.6614	6.8114	141.9424	-0.0592	0.0182	-0.0073	-0.0462	0.0165	0.9585
25.9332	-12.584	709.4477	40.8849	-255.738	-46.5743	752.626	11.0579	137.8155	-11.2243	51.9954	6.2582	123.8539	-0.0592	0.0182	-0.0073	-0.0462	0.0165	0.9585
25.9579	-11.7767	750.6168	45.9561	-270.482	-50.7431	792.1189	8.2305	115.9985	-9.7864	43.6992	5.8979	104.2927	-0.0592	0.0182	-0.0073	-0.0462	0.0165	0.9585
25.9825	-10.0048	786.924	50.7781	-283.5473	-54.2643	825.8791	5.182	93.401	-8.2909	35.1273	5.6066	84.0455	-0.0592	0.0182	-0.0073	-0.0462	0.0165	0.9585
26.0071	-7.2363	814.3537	54.9989	-293.4803	-56.7884	849.8383	2.3078	71.1838	-6.7184	26.7248	5.2071	64.1185	-0.0592	0.0182	-0.0073	-0.0462	0.0165	0.9585
26.0318	-3.5414	829.8882	58.2935	-299.1906	-58.0283	861.0311	0.067602	50.5577	-5.0927	18.9512	4.5382	45.5604	-0.0592	0.0182	-0.0073	-0.0462	0.0165	0.9585
26.0564	0.92083	832.2711	60.4107	-300.2258	-57.804	858.3385	-1.2125	32.5848	-3.5012	12.2053	3.5489	29.2873	-0.0592	0.0182	-0.0073	-0.0462	0.0165	0.9585
26.0811	5.9103	822.3867	61.2271	-296.9106	-56.0954	842.8438	-1.5747	17.9804	-2.082	6.751	2.3744	15.917	-0.0592	0.0182	-0.0073	-0.0462	0.0165	0.9585
26.1057	11.1668	803.2452	60.7787	-290.3382	-53.048	817.768	-1.3354	6.8572	-0.9432	2.6232	1.2273	5.549	-0.0592	0.0182	-0.0073	-0.0462	0.0165	0.9585
26.1304	16.454	779.4414	59.2629	-282.1686	-48.953	787.8771	-0.77028	-1.2107	-0.11534	-0.34747	0.24065	-2.1835	-0.0592	0.0182	-0.0073	-0.0462	0.0165	0.9585
26.155	21.5583	756.1079	57.0113	-274.2488	-44.2211	758.4182	-0.093635	-6.8091	0.40818	-2.3946	-0.50394	-7.7561	-0.0592	0.0182	-0.0073	-0.0462	0.0165	0.9585
26.1796	26.3177	737.7186	54.4383	-268.1818	-39.3197	733.9214	0.52293	-10.3874	0.63689	-3.7049	-0.93871	-11.4611	-0.0592	0.0182	-0.0073	-0.0462	0.0165	0.9585
26.2043	30.6523	726.9884	51.9685	-264.9274	-34.6927	717.1326	0.92578	-12.0496	0.56353	-4.3419	-0.97922	-13.205	-0.0592	0.0182	-0.0073	-0.0462	0.0165	0.9585
26.2289	34.5503	724.1705	49.9586	-264.5401	-30.6911	708.3734	0.95777	-11.4218	0.15569	-4.1966	-0.50782	-12.3728	-0.0592	0.0182	-0.0073	-0.0462	0.0165	0.9585
26.2536	38.0165	726.9944	48.6397	-266.1436	-27.5441	705.5337	0.4487	-7.5917	-0.64382	-2.9636	0.62395	-7.7707	-0.0592	0.0182	-0.0073	-0.0462	0.0165	0.9585
26.2782	41.0076	731.3174	48.0797	-268.1731	-25.3496	704.7402	-0.78441	0.86502	-1.8977	-0.14852	2.5743	2.3364	-0.0592	0.0182	-0.0073	-0.0462	0.0165	0.9585
26.3029	43.3802	732.2364	48.1723	-268.7912	-24.0809	701.439	-2.9214	15.7339	-3.6434	4.8834	5.4714	20.0507	-0.0592	0.0182	-0.0073	-0.0462	0.0165	0.9585
26.3275	44.9085	725.212	48.6703	-266.3076	-23.614	691.4482	-6.0929	38.8366	-5.849	12.7988	9.3449	47.4555	-0.0592	0.0182	-0.0073	-0.0462	0.0165	0.9585
26.3521	45.3657	706.9926	49.2302	-259.5274	-23.7373	671.7815	-10.3026	71.4731	-8.3476	24.1057	14.0133	85.9438	-0.0592	0.0182	-0.0073	-0.0462	0.0165	0.9585
26.3768	44.6281	676.2606	49.4594	-248.0017	-24.151	641.2012	-15.4674	113.7747	-10.831	38.9263	19.0814	135.4516	-0.0592	0.0182	-0.0073	-0.0462	0.0165	0.9585
26.4014	42.7632	633.8073	48.979	-232.0849	-24.4863	600.3452	-21.6648	164.7729	-13.3183	56.9711	24.5659	194.5891	-0.0592	0.0182	-0.0073	-0.0462	0.0165	0.9585
26.4261	40.0027	581.8849	47.5366	-212.6742	-24.4169	551.139	-28.5457	222.3964	-16.3509	77.4959	30.9162	260.6847	-0.0592	0.0182	-0.0073	-0.0462	0.0165	0.9585
26.4507	36.6969	523.4558	45.0317	-190.92	-23.7007	496.1366	-35.2056	283.555	-20.4541	99.35	38.3552	329.893	-0.0592	0.0182	-0.0073	-0.0462	0.0165	0.9585
26.4754	33.2489	461.7634	41.4917	-168.0622	-22.1872	438.1692	-40.7383	344.9238	-25.506	121.3159	46.3902	398.2121	-0.0592	0.0182	-0.0073	-0.0462	0.0165	0.9585
26.5	30.0091	400.0805	37.0616	-145.3334	-19.8503	380.1551	-44.5712	403.7609	-30.7304	142.424	53.9383	462.4928	-0.0592	0.0182	-0.0073	-0.0462	0.0165	0.9585
26.5246	27.2104	341.4076	32.0132	-123.8434	-16.8162	324.8406	-46.5098	458.1776	-35.4574	162.0046	60.1817	520.7487	-0.0592	0.0182	-0.0073	-0.0462	0.0165	0.9585
26.5493	24.982	287.9998	26.7171	-104.4005	-13.3364	274.3448	-46.7396	506.8883	-39.383	179.5807	64.8524	571.8398	-0.0592	0.0182	-0.0073	-0.0462	0.0165	0.9585
26.5739	23.4061	241.0046	21.5331	-87.3874	-9.6784	229.783	-45.6991	549.1701	-42.349	194.8784	67.9453	615.3066	-0.0592	0.0182	-0.0073	-0.0462	0.0165	0.9585
26.5986	22.5631	200.4942	16.7481	-72.7832	-6.0543	191.2665	-43.8411	585.1621	-44.264	207.95	69.5372	651.565	-0.0592	0.0182	-0.0073	-0.0462	0.0165	0.9585
26.6232	22.5274	165.9229	12.5462	-60.3452	-2.5932	158.3206	-41.5253	615.6863	-45.1561	219.1063	69.8008	681.6717	-0.0592	0.0182	-0.0073	-0.0462	0.0165	0.9585
26.6479	23.3194	136.6596	8.9929	-49.8107	0.65424	130.386	-39.0255	641.7818	-45.1327	228.745	68.9673	706.8573	-0.0592	0.0182	-0.0073	-0.0462	0.0165	0.9585
26.6725	24.8448	112.3118	6.0792	-41.0166	3.6552	107.1262	-36.5294	664.2267	-44.3114	237.1749	67.2512	728.051	-0.0592	0.0182	-0.0073	-0.0462	0.0165	0.9585
26.6971	26.8364	92.779	3.7683	-33.9167	6.337	88.4739	-34.1251	683.2237	-42.786	244.4945	64.8007	745.5633	-0.0592	0.0182	-0.0073	-0.0462	0.0165	0.9585
26.7218	28.8478	78.1327	2.0119	-28.5375	8.575	74.5139	-31.8077	698.4116	-40.6368	250.5856	61.7069	759.096	-0.0592	0.0182	-0.0073	-0.0462	0.0165	0.9585
26.7464	30.3526	68.3853	0.76799	-24.8892	10.2093	65.2616	-29.5178	709.0869	-37.9919	255.1783	58.0754	767.9806	-0.0592	0.0182	-0.0073	-0.0462	0.0165	0.9585
26.7711	30.8992	63.2337	0.024885	-22.87	11.0732	60.4278	-27.2053	714.5197	-35.0613	257.9577	54.0878	771.5227	-0.0592	0.0182	-0.0073	-0.0462	0.0165	0.9585
26.7957	30.2361	61.8547	-0.18691	-22.1907	11.0296	59.2151	-24.8661	714.3493	-32.1253	258.7172	50.0119	769.4088	-0.0592	0.0182	-0.0073	-0.0462	0.0165	0.9585
26.8204	28.3467	62.8447	0.17301	-22.355	10.0185	60.2585	-22.5593	709.0052	-29.49	257.5372	46.1781	762.1435	-0.0592	0.0182	-0.0073	-0.0462	0.0165	0.9585
26.845	25.4176	64.3989	1.0673	-22.7269	8.1297	61.8103	-20.4134	700.1071	-27.3814	254.9602	42.8811	751.4709	-0.0592	0.0182	-0.0073	-0.0462	0.0165	0.9585
26.8696	21.7081	64.794	2.3109	-22.7059	5.6243	62.2078	-18.6102	690.4045	-25.8854	251.9781	40.3101	740.3006	-0.0592	0.0182	-0.0073	-0.0462	0.0165	0.9585
26.8943	17.4857	62.8929	3.6156	-21.9049	2.8713	60.3612	-17.3248	683.094	-24.9958	249.7724	38.5676	731.9816	-0.0592	0.0182	-0.0073	-0.0462	0.0165	0.9585
26.9189	13.0255	58.3656	4.6968	-20.2203	0.24446	55.9686	-16.6758	680.981	-24.6446	249.3953	37.6661	729.4215	-0.0592	0.0182	-0.0073	-0.0462	0.0165	0.9585
26.9436	8.621	51.5694	5.3561	-17.7846	-1.9588	49.3982	-16.7298	685.8722	-24.7147	251.5373	37.5306	734.4573	-0.0592	0.0182	-0.0073	-0.0462	0.0165	0.9585
26.9682	4.5949	43.2448	5.5101	-14.8556	-3.5436	41.3813	-17.5052	698.41	-25.0561	256.4583	38.0107	747.688	-0.0592	0.0182	-0.0073	-0.0462	0.0165	0.9585
26.9929	1.2699	34.2159	5.176	-11.714	-4.4153	32.7168	-18.9387	718.2255	-25.5199	264.0372	38.9028	768.6314	-0.0592	0.0182	-0.0073	-0.0462	0.0165	0.9585
27.0175	-1.0987	25.2434	4.4447	-8.6161	-4.5731	24.1331	-20.8725	744.0389	-25.9935	273.8074	39.9886	795.8214	-0.0592	0.0182	-0.0073	-0.0462	0.0165	0.9585
27.0421	-2.4099	17.0152	3.462	-5.7912	-4.1235	16.2824	-23.0746	773.7657	-26.3989	284.9979	41.0547	826.9278	-0.0592	0.0182	-0.0073	-0.0462	0.0165	0.9585
27.0668	-2.825	10.1396	2.4213	-3.4394	-3.3074	9.7332	-25.2509	804.7343	-26.6845	296.6161	41.8992	858.9957	-0.0592	0.0182	-0.0073	-0.0462	0.0165	0.9585
27.0914	-2.6847	4.9402	1.4949	-1.6652	-2.4047	4.7898	-27.0564	833.9209	-26.8332	307.533	42.3503	888.7165	-0.0592	0.0182	-0.0073	-0.0462	0.0165	0.9585
27.1161	-2.269	1.35	0.7618	-0.44347	-1.5874	1.3878	-28.1625	858.2091	-26.8677	316.579	42.301	912.746	-0.0592	0.0182	-0.0073	-0.0462	0.0165	0.9585
27.1407	-1.7704	-0.9172	0.23416	0.32709	-0.9354	-0.75684	-28.3552	874.6993	-26.8245	322.6639	41.7162	928.0653	-0.0592	0.0182	-0.0073	-0.0462	0.0165	0.9585
27.1654	-1.3092	-2.2338	-0.11209	0.77746	-0.46628	-2.0081	-27.5826	881.2187	-26.7349	324.9703	40.6322	932.5059	-0.0592	0.0182	-0.0073	-0.0462	0.0165	0.9585
27.19	-0.94531	-2.9725	-0.31618	1.0376	-0.16177	-2.7289	-25.9291	876.9549	-26.635	323.1901	39.153	925.3766	-0.0592	0.0182	-0.0073	-0.0462	0.0165	0.9585
27.2146	-0.69366	-3.4588	-0.4202	1.2202	0.015321	-3.2369	-23.557	862.7569	-26.5743	317.6378	37.4271	907.7191	-0.0592	0.0182	-0.0073	-0.0462	0.0165	0.9585
27.2393	-0.53681	-3.9438	-0.46636	1.4118	0.11214	-3.7787	-20.6553	840.8973	-26.6082	309.166	35.6145	882.0033	-0.0592	0.0182	-0.0073	-0.0462	0.0165	0.9585
27.2639	-0.43365	-4.5844	-0.49105	1.665	0.17987	-4.5074	-17.3874	814.5342	-26.7783	298.9699	33.8452	851.5371	-0.0592	0.0182	-0.0073	-0.0462	0.0165	0.9585
27.2886	-0.32394	-5.425	-0.52255	1.991	0.27146	-5.4616	-13.8717	787.0925	-27.0857	288.3552	32.1851	819.8212	-0.0592	0.0182	-0.0073	-0.0462	0.0165	0.9585
27.3132	-0.13203	-6.3709	-0.58279	2.3506	0.4369	-6.5381	-10.1701	761.7241	-27.5005	278.5307	30.6415	790.0076	-0.0592	0.0182	-0.0073	-0.0462	0.0165	0.9585
27.3379	0.22423	-7.1556	-0.68196	2.6415	0.71377	-7.4514	-6.2951	740.9133	-27.9831	270.4539	29.1923	764.5267	-0.0592	0.0182	-0.0073	-0.0462	0.0165	0.9585
27.3625	0.82334	-7.3088	-0.81629	2.6845	1.1239	-7.6901	-2.2295	726.2178	-28.5014	264.728	27.8067	744.8699	-0.0592	0.0182	-0.0073	-0.0462	0.0165	0.9585
27.3871	1.7259	-6.1278	-0.9637	2.2139	1.6633	-6.4908	2.0255	718.1019	-29.0457	261.5368	26.4678	731.4723	-0.0592	0.0182	-0.0073	-0.0462	0.0165	0.9585
